<svg width="48" height="16" viewBox="0 0 48 16" fill="none" xmlns="http://www.w3.org/2000/svg">
<path d="M19.9688 4.98047C19.875 4.92773 19.7686 4.90137 19.6494 4.90137C19.3135 4.90137 19.1455 5.11328 19.1455 5.53711V6H19.8486V6.41016H19.1455V9H18.668V6.41016H18.1553V6H18.668V5.51367C18.668 5.19922 18.7588 4.95117 18.9404 4.76953C19.1221 4.58594 19.3486 4.49414 19.6201 4.49414C19.7666 4.49414 19.8828 4.51172 19.9688 4.54688V4.98047ZM22.5146 9H22.0342V8.53125H22.0225C21.8135 8.89062 21.5059 9.07031 21.0996 9.07031C20.8008 9.07031 20.5664 8.99121 20.3965 8.83301C20.2285 8.6748 20.1445 8.46484 20.1445 8.20312C20.1445 7.64258 20.4746 7.31641 21.1348 7.22461L22.0342 7.09863C22.0342 6.58887 21.8281 6.33398 21.416 6.33398C21.0547 6.33398 20.7285 6.45703 20.4375 6.70312V6.21094C20.7324 6.02344 21.0723 5.92969 21.457 5.92969C22.1621 5.92969 22.5146 6.30273 22.5146 7.04883V9ZM22.0342 7.48242L21.3105 7.58203C21.0879 7.61328 20.9199 7.66895 20.8066 7.74902C20.6934 7.82715 20.6367 7.9668 20.6367 8.16797C20.6367 8.31445 20.6885 8.43457 20.792 8.52832C20.8975 8.62012 21.0371 8.66602 21.2109 8.66602C21.4492 8.66602 21.6455 8.58301 21.7998 8.41699C21.9561 8.24902 22.0342 8.03711 22.0342 7.78125V7.48242ZM23.9121 8.56641H23.9004V9H23.4199V4.55859H23.9004V6.52734H23.9121C24.1484 6.12891 24.4941 5.92969 24.9492 5.92969C25.334 5.92969 25.6348 6.06445 25.8516 6.33398C26.0703 6.60156 26.1797 6.96094 26.1797 7.41211C26.1797 7.91406 26.0576 8.31641 25.8135 8.61914C25.5693 8.91992 25.2354 9.07031 24.8115 9.07031C24.415 9.07031 24.1152 8.90234 23.9121 8.56641ZM23.9004 7.35645V7.77539C23.9004 8.02344 23.9805 8.23438 24.1406 8.4082C24.3027 8.58008 24.5078 8.66602 24.7559 8.66602C25.0469 8.66602 25.2744 8.55469 25.4385 8.33203C25.6045 8.10938 25.6875 7.7998 25.6875 7.40332C25.6875 7.06934 25.6104 6.80762 25.4561 6.61816C25.3018 6.42871 25.0928 6.33398 24.8291 6.33398C24.5498 6.33398 24.3252 6.43164 24.1553 6.62695C23.9854 6.82031 23.9004 7.06348 23.9004 7.35645ZM28.5117 6.48633C28.4277 6.42188 28.3066 6.38965 28.1484 6.38965C27.9434 6.38965 27.7715 6.48633 27.6328 6.67969C27.4961 6.87305 27.4277 7.13672 27.4277 7.4707V9H26.9473V6H27.4277V6.61816H27.4395C27.5078 6.40723 27.6123 6.24316 27.7529 6.12598C27.8936 6.00684 28.0508 5.94727 28.2246 5.94727C28.3496 5.94727 28.4453 5.96094 28.5117 5.98828V6.48633ZM29.2793 5.23828C29.1934 5.23828 29.1201 5.20898 29.0596 5.15039C28.999 5.0918 28.9688 5.01758 28.9688 4.92773C28.9688 4.83789 28.999 4.76367 29.0596 4.70508C29.1201 4.64453 29.1934 4.61426 29.2793 4.61426C29.3672 4.61426 29.4414 4.64453 29.502 4.70508C29.5645 4.76367 29.5957 4.83789 29.5957 4.92773C29.5957 5.01367 29.5645 5.08691 29.502 5.14746C29.4414 5.20801 29.3672 5.23828 29.2793 5.23828ZM29.5137 9H29.0332V6H29.5137V9ZM32.5312 8.8623C32.3008 9.00098 32.0273 9.07031 31.7109 9.07031C31.2832 9.07031 30.9375 8.93164 30.6738 8.6543C30.4121 8.375 30.2812 8.01367 30.2812 7.57031C30.2812 7.07617 30.4229 6.67969 30.7061 6.38086C30.9893 6.08008 31.3672 5.92969 31.8398 5.92969C32.1035 5.92969 32.3359 5.97852 32.5371 6.07617V6.56836C32.3145 6.41211 32.0762 6.33398 31.8223 6.33398C31.5156 6.33398 31.2637 6.44434 31.0664 6.66504C30.8711 6.88379 30.7734 7.17188 30.7734 7.5293C30.7734 7.88086 30.8652 8.1582 31.0488 8.36133C31.2344 8.56445 31.4824 8.66602 31.793 8.66602C32.0547 8.66602 32.3008 8.5791 32.5312 8.40527V8.8623Z" fill="white"/>
<path d="M18.2417 12V9.7793H18.4292V12H18.2417ZM19.002 11.2837C19.0029 11.3755 19.0151 11.458 19.0386 11.5312C19.062 11.6045 19.0957 11.6665 19.1396 11.7173C19.1836 11.7681 19.2368 11.8071 19.2993 11.8345C19.3628 11.8608 19.4341 11.874 19.5132 11.874C19.6821 11.874 19.8418 11.8149 19.9922 11.6968V11.8813C19.8486 11.9839 19.6748 12.0352 19.4707 12.0352C19.3701 12.0352 19.2788 12.0176 19.1968 11.9824C19.1147 11.9473 19.0449 11.8965 18.9873 11.8301C18.9297 11.7627 18.8853 11.6802 18.854 11.5825C18.8228 11.4849 18.8071 11.3735 18.8071 11.2485C18.8071 11.1362 18.8242 11.0322 18.8584 10.9365C18.8926 10.8408 18.9399 10.7583 19.0005 10.689C19.061 10.6187 19.1328 10.564 19.2158 10.5249C19.2988 10.4849 19.3896 10.4648 19.4883 10.4648C19.585 10.4648 19.6704 10.4819 19.7446 10.5161C19.8188 10.5493 19.8809 10.5972 19.9307 10.6597C19.9814 10.7222 20.02 10.7983 20.0464 10.8882C20.0728 10.978 20.0859 11.0786 20.0859 11.1899V11.2837H19.002ZM19.8926 11.1196C19.8896 10.9634 19.8525 10.8423 19.7812 10.7563C19.71 10.6704 19.6108 10.6274 19.4839 10.6274C19.4204 10.6274 19.3613 10.6387 19.3066 10.6611C19.2529 10.6836 19.2056 10.7163 19.1646 10.7593C19.1235 10.8013 19.0894 10.853 19.062 10.9146C19.0356 10.9751 19.0171 11.0435 19.0063 11.1196H19.8926ZM21.6929 11.8843C21.6929 12.1626 21.6294 12.3687 21.5024 12.5024C21.3765 12.6372 21.1816 12.7046 20.918 12.7046C20.7539 12.7046 20.5986 12.668 20.4521 12.5947V12.4043C20.6152 12.4951 20.7705 12.5405 20.918 12.5405C21.3096 12.5405 21.5054 12.3335 21.5054 11.9194V11.7393H21.4995C21.3843 11.9365 21.2085 12.0352 20.9722 12.0352C20.8794 12.0352 20.7944 12.0181 20.7173 11.9839C20.6411 11.9497 20.5757 11.9004 20.521 11.8359C20.4663 11.7715 20.4238 11.6934 20.3936 11.6016C20.3633 11.5088 20.3481 11.4043 20.3481 11.2881C20.3481 11.165 20.3643 11.0532 20.3965 10.9526C20.4287 10.8511 20.4746 10.7642 20.5342 10.6919C20.5938 10.6196 20.6655 10.564 20.7495 10.5249C20.8345 10.4849 20.9297 10.4648 21.0352 10.4648C21.2471 10.4648 21.4019 10.5508 21.4995 10.7227H21.5054V10.5H21.6929V11.8843ZM21.5054 11.0889C21.5054 11.0264 21.4941 10.9673 21.4717 10.9116C21.4492 10.856 21.418 10.8071 21.3779 10.7651C21.3379 10.7231 21.29 10.6899 21.2344 10.6655C21.1797 10.6401 21.1191 10.6274 21.0527 10.6274C20.9746 10.6274 20.9038 10.6426 20.8403 10.6729C20.7778 10.7031 20.7241 10.7461 20.6792 10.8018C20.6353 10.8574 20.6011 10.9253 20.5767 11.0054C20.5532 11.0845 20.5415 11.1738 20.5415 11.2734C20.5415 11.3652 20.5527 11.4482 20.5752 11.5225C20.5977 11.5967 20.6294 11.6597 20.6704 11.7114C20.7114 11.7632 20.7607 11.8032 20.8184 11.8315C20.877 11.8599 20.9419 11.874 21.0132 11.874C21.0874 11.874 21.1548 11.8608 21.2153 11.8345C21.2759 11.8071 21.3276 11.77 21.3706 11.7231C21.4136 11.6753 21.4468 11.6196 21.4702 11.5562C21.4937 11.4917 21.5054 11.4224 21.5054 11.3481V11.0889ZM23.0405 12V11.7334H23.0347C22.9858 11.8291 22.9189 11.9033 22.834 11.9561C22.75 12.0088 22.6548 12.0352 22.5483 12.0352C22.4761 12.0352 22.4106 12.0249 22.3521 12.0044C22.2944 11.9839 22.2451 11.9551 22.2041 11.918C22.1641 11.8799 22.1328 11.8345 22.1104 11.7817C22.0889 11.729 22.0781 11.6709 22.0781 11.6074C22.0781 11.4717 22.1201 11.3638 22.2041 11.2837C22.2881 11.2026 22.415 11.1499 22.585 11.1255L23.0405 11.0596C23.0405 10.7715 22.9287 10.6274 22.7051 10.6274C22.5303 10.6274 22.3682 10.6914 22.2188 10.8193V10.6143C22.25 10.5918 22.2852 10.5718 22.3242 10.5542C22.3643 10.5356 22.4062 10.52 22.4502 10.5073C22.4941 10.4937 22.5391 10.4834 22.585 10.4766C22.6318 10.4688 22.6772 10.4648 22.7212 10.4648C22.8882 10.4648 23.0142 10.5117 23.0991 10.6055C23.1851 10.6992 23.228 10.8389 23.228 11.0244V12H23.0405ZM22.6538 11.272C22.5864 11.2817 22.5288 11.2939 22.481 11.3086C22.4331 11.3232 22.3936 11.3433 22.3623 11.3687C22.3311 11.3931 22.3081 11.4238 22.2935 11.4609C22.2788 11.4971 22.2715 11.542 22.2715 11.5957C22.2715 11.6357 22.2783 11.6729 22.292 11.707C22.3066 11.7412 22.3271 11.771 22.3535 11.7964C22.3809 11.8208 22.4136 11.8398 22.4517 11.8535C22.4907 11.8672 22.5347 11.874 22.5835 11.874C22.6499 11.874 22.7109 11.8613 22.7666 11.8359C22.8223 11.8105 22.8701 11.7754 22.9102 11.7305C22.9512 11.6855 22.9829 11.6318 23.0054 11.5693C23.0288 11.5068 23.0405 11.439 23.0405 11.3657V11.2178L22.6538 11.272ZM24.6768 11.9326C24.5654 12 24.4307 12.0347 24.2725 12.0366C24.165 12.0376 24.0684 12.019 23.9824 11.981C23.8965 11.9429 23.8232 11.8901 23.7627 11.8228C23.7021 11.7544 23.6558 11.6743 23.6235 11.5825C23.5913 11.4897 23.5752 11.3892 23.5752 11.2808C23.5752 11.1685 23.5923 11.063 23.6265 10.9644C23.6606 10.8647 23.7104 10.7783 23.7759 10.7051C23.8413 10.6309 23.9214 10.5723 24.0161 10.5293C24.1108 10.4863 24.2192 10.4648 24.3413 10.4648C24.4653 10.4648 24.5786 10.4888 24.6812 10.5366V10.7358C24.5718 10.6636 24.4536 10.6274 24.3267 10.6274C24.2378 10.6274 24.1587 10.6445 24.0894 10.6787C24.02 10.7119 23.9614 10.7578 23.9136 10.8164C23.8667 10.874 23.8306 10.9419 23.8052 11.02C23.7808 11.0972 23.7686 11.1792 23.7686 11.2661C23.7686 11.3462 23.7788 11.4229 23.7993 11.4961C23.8208 11.5693 23.853 11.6343 23.896 11.6909C23.9399 11.7466 23.9951 11.791 24.0615 11.8242C24.1279 11.8574 24.2061 11.874 24.2959 11.874C24.4365 11.874 24.5635 11.832 24.6768 11.748V11.9326ZM25.4736 12.2725C25.415 12.4189 25.3477 12.5273 25.2715 12.5977C25.1953 12.6689 25.103 12.7046 24.9946 12.7046C24.9409 12.7046 24.8955 12.6982 24.8584 12.6855V12.5098C24.8799 12.5176 24.9014 12.5234 24.9229 12.5273C24.9453 12.5312 24.9678 12.5332 24.9902 12.5332C25.0518 12.5332 25.105 12.5137 25.1499 12.4746C25.1958 12.4365 25.2354 12.3784 25.2686 12.3003L25.3989 11.9927L24.8218 10.5H25.0298L25.459 11.688C25.4648 11.7036 25.4702 11.7217 25.4751 11.7422C25.481 11.7617 25.4863 11.7812 25.4912 11.8008H25.4985C25.5034 11.7842 25.5078 11.7676 25.5117 11.751C25.5166 11.7334 25.5229 11.7144 25.5308 11.6938L25.9863 10.5H26.1841L25.4736 12.2725Z" fill="white" fill-opacity="0.8"/>
<path d="M9 12H8V14H7V15H5V14H4V13H3V12H2V11H1V9H2V8H3V7H4V6H5V5H6V4H7V2H8V1H9V2H10V3H11V4H12V5H13V6H14V8H13V9H12H11V10H10V11H9V12Z" fill="url(#paint0_linear_312_82)"/>
<path d="M8 2H7V4H8V2Z" fill="url(#paint1_linear_312_82)"/>
<path d="M9 2V1H8V2H9Z" fill="url(#paint2_linear_312_82)"/>
<path d="M10 3V2H9V3H10Z" fill="url(#paint3_linear_312_82)"/>
<path d="M11 4V3H10V4H11Z" fill="url(#paint4_linear_312_82)"/>
<path d="M12 5V4H11V5H12Z" fill="url(#paint5_linear_312_82)"/>
<path d="M13 6V5H12V6H13Z" fill="url(#paint6_linear_312_82)"/>
<path d="M13 8H14V6H13V8Z" fill="url(#paint7_linear_312_82)"/>
<path d="M10 10H11V9H10V10Z" fill="url(#paint8_linear_312_82)"/>
<path d="M9 11H10V10H9V11Z" fill="url(#paint9_linear_312_82)"/>
<path d="M8 12H9V11H8V12Z" fill="url(#paint10_linear_312_82)"/>
<path d="M8 14V12H7V14H8Z" fill="url(#paint11_linear_312_82)"/>
<path d="M7 15V14H5V15H7Z" fill="url(#paint12_linear_312_82)"/>
<path d="M4 14H5V13H4V14Z" fill="url(#paint13_linear_312_82)"/>
<path d="M3 13H4V12H3V13Z" fill="url(#paint14_linear_312_82)"/>
<path d="M2 12H3V11H2V12Z" fill="url(#paint15_linear_312_82)"/>
<path d="M1 11H2V9H1V11Z" fill="url(#paint16_linear_312_82)"/>
<path d="M2 8V9H3V8H2Z" fill="url(#paint17_linear_312_82)"/>
<path d="M3 7V8H4V7H3Z" fill="url(#paint18_linear_312_82)"/>
<path d="M5 6H4V7H5V6Z" fill="url(#paint19_linear_312_82)"/>
<path d="M6 5H5V6H6V5Z" fill="url(#paint20_linear_312_82)"/>
<path d="M7 4H6V5H7V4Z" fill="url(#paint21_linear_312_82)"/>
<path d="M13 9V8H12V7H11V8V9H13Z" fill="url(#paint22_linear_312_82)"/>
<path d="M11 6H10V7H11V6Z" fill="url(#paint23_linear_312_82)"/>
<path d="M10 5H9V6H10V5Z" fill="url(#paint24_linear_312_82)"/>
<path d="M9 4H8V5H9V4Z" fill="url(#paint25_linear_312_82)"/>
<defs>
<linearGradient id="paint0_linear_312_82" x1="7" y1="8.5" x2="9.5" y2="14" gradientUnits="userSpaceOnUse">
<stop stop-color="#F9EFDF"/>
<stop offset="1" stop-color="#A6A194"/>
</linearGradient>
<linearGradient id="paint1_linear_312_82" x1="6.5" y1="9" x2="8" y2="11.5" gradientUnits="userSpaceOnUse">
<stop stop-opacity="0.2"/>
<stop offset="1" stop-opacity="0.4"/>
</linearGradient>
<linearGradient id="paint2_linear_312_82" x1="6.5" y1="9" x2="8" y2="11.5" gradientUnits="userSpaceOnUse">
<stop stop-opacity="0.2"/>
<stop offset="1" stop-opacity="0.4"/>
</linearGradient>
<linearGradient id="paint3_linear_312_82" x1="6.5" y1="9" x2="8" y2="11.5" gradientUnits="userSpaceOnUse">
<stop stop-opacity="0.2"/>
<stop offset="1" stop-opacity="0.4"/>
</linearGradient>
<linearGradient id="paint4_linear_312_82" x1="6.5" y1="9" x2="8" y2="11.5" gradientUnits="userSpaceOnUse">
<stop stop-opacity="0.2"/>
<stop offset="1" stop-opacity="0.4"/>
</linearGradient>
<linearGradient id="paint5_linear_312_82" x1="6.5" y1="9" x2="8" y2="11.5" gradientUnits="userSpaceOnUse">
<stop stop-opacity="0.2"/>
<stop offset="1" stop-opacity="0.4"/>
</linearGradient>
<linearGradient id="paint6_linear_312_82" x1="6.5" y1="9" x2="8" y2="11.5" gradientUnits="userSpaceOnUse">
<stop stop-opacity="0.2"/>
<stop offset="1" stop-opacity="0.4"/>
</linearGradient>
<linearGradient id="paint7_linear_312_82" x1="6.5" y1="9" x2="8" y2="11.5" gradientUnits="userSpaceOnUse">
<stop stop-opacity="0.2"/>
<stop offset="1" stop-opacity="0.4"/>
</linearGradient>
<linearGradient id="paint8_linear_312_82" x1="6.5" y1="9" x2="8" y2="11.5" gradientUnits="userSpaceOnUse">
<stop stop-opacity="0.2"/>
<stop offset="1" stop-opacity="0.4"/>
</linearGradient>
<linearGradient id="paint9_linear_312_82" x1="6.5" y1="9" x2="8" y2="11.5" gradientUnits="userSpaceOnUse">
<stop stop-opacity="0.2"/>
<stop offset="1" stop-opacity="0.4"/>
</linearGradient>
<linearGradient id="paint10_linear_312_82" x1="6.5" y1="9" x2="8" y2="11.5" gradientUnits="userSpaceOnUse">
<stop stop-opacity="0.2"/>
<stop offset="1" stop-opacity="0.4"/>
</linearGradient>
<linearGradient id="paint11_linear_312_82" x1="6.5" y1="9" x2="8" y2="11.5" gradientUnits="userSpaceOnUse">
<stop stop-opacity="0.2"/>
<stop offset="1" stop-opacity="0.4"/>
</linearGradient>
<linearGradient id="paint12_linear_312_82" x1="6.5" y1="9" x2="8" y2="11.5" gradientUnits="userSpaceOnUse">
<stop stop-opacity="0.2"/>
<stop offset="1" stop-opacity="0.4"/>
</linearGradient>
<linearGradient id="paint13_linear_312_82" x1="6.5" y1="9" x2="8" y2="11.5" gradientUnits="userSpaceOnUse">
<stop stop-opacity="0.2"/>
<stop offset="1" stop-opacity="0.4"/>
</linearGradient>
<linearGradient id="paint14_linear_312_82" x1="6.5" y1="9" x2="8" y2="11.5" gradientUnits="userSpaceOnUse">
<stop stop-opacity="0.2"/>
<stop offset="1" stop-opacity="0.4"/>
</linearGradient>
<linearGradient id="paint15_linear_312_82" x1="6.5" y1="9" x2="8" y2="11.5" gradientUnits="userSpaceOnUse">
<stop stop-opacity="0.2"/>
<stop offset="1" stop-opacity="0.4"/>
</linearGradient>
<linearGradient id="paint16_linear_312_82" x1="6.5" y1="9" x2="8" y2="11.5" gradientUnits="userSpaceOnUse">
<stop stop-opacity="0.2"/>
<stop offset="1" stop-opacity="0.4"/>
</linearGradient>
<linearGradient id="paint17_linear_312_82" x1="6.5" y1="9" x2="8" y2="11.5" gradientUnits="userSpaceOnUse">
<stop stop-opacity="0.2"/>
<stop offset="1" stop-opacity="0.4"/>
</linearGradient>
<linearGradient id="paint18_linear_312_82" x1="6.5" y1="9" x2="8" y2="11.5" gradientUnits="userSpaceOnUse">
<stop stop-opacity="0.2"/>
<stop offset="1" stop-opacity="0.4"/>
</linearGradient>
<linearGradient id="paint19_linear_312_82" x1="6.5" y1="9" x2="8" y2="11.5" gradientUnits="userSpaceOnUse">
<stop stop-opacity="0.2"/>
<stop offset="1" stop-opacity="0.4"/>
</linearGradient>
<linearGradient id="paint20_linear_312_82" x1="6.5" y1="9" x2="8" y2="11.5" gradientUnits="userSpaceOnUse">
<stop stop-opacity="0.2"/>
<stop offset="1" stop-opacity="0.4"/>
</linearGradient>
<linearGradient id="paint21_linear_312_82" x1="6.5" y1="9" x2="8" y2="11.5" gradientUnits="userSpaceOnUse">
<stop stop-opacity="0.2"/>
<stop offset="1" stop-opacity="0.4"/>
</linearGradient>
<linearGradient id="paint22_linear_312_82" x1="6.5" y1="9" x2="8" y2="11.5" gradientUnits="userSpaceOnUse">
<stop stop-opacity="0.2"/>
<stop offset="1" stop-opacity="0.4"/>
</linearGradient>
<linearGradient id="paint23_linear_312_82" x1="6.5" y1="9" x2="8" y2="11.5" gradientUnits="userSpaceOnUse">
<stop stop-opacity="0.2"/>
<stop offset="1" stop-opacity="0.4"/>
</linearGradient>
<linearGradient id="paint24_linear_312_82" x1="6.5" y1="9" x2="8" y2="11.5" gradientUnits="userSpaceOnUse">
<stop stop-opacity="0.2"/>
<stop offset="1" stop-opacity="0.4"/>
</linearGradient>
<linearGradient id="paint25_linear_312_82" x1="6.5" y1="9" x2="8" y2="11.5" gradientUnits="userSpaceOnUse">
<stop stop-opacity="0.2"/>
<stop offset="1" stop-opacity="0.4"/>
</linearGradient>
</defs>
</svg>
