<svg width="16" height="16" viewBox="0 0 16 16" fill="none" xmlns="http://www.w3.org/2000/svg">
<path d="M10 12H9V14H8V15H6V14H5V13H4V12H3V11H2V9H3V8H4V7H5V6H6V5H7V4H8V2H9V1H10V2H11V3H12V4H13V5H14V6H15V8H14V9H13H12V10H11V11H10V12Z" fill="url(#paint0_linear_309_82)"/>
<path d="M9 2H8V4H9V2Z" fill="url(#paint1_linear_309_82)"/>
<path d="M10 2V1H9V2H10Z" fill="url(#paint2_linear_309_82)"/>
<path d="M11 3V2H10V3H11Z" fill="url(#paint3_linear_309_82)"/>
<path d="M12 4V3H11V4H12Z" fill="url(#paint4_linear_309_82)"/>
<path d="M13 5V4H12V5H13Z" fill="url(#paint5_linear_309_82)"/>
<path d="M14 6V5H13V6H14Z" fill="url(#paint6_linear_309_82)"/>
<path d="M14 8H15V6H14V8Z" fill="url(#paint7_linear_309_82)"/>
<path d="M11 10H12V9H11V10Z" fill="url(#paint8_linear_309_82)"/>
<path d="M10 11H11V10H10V11Z" fill="url(#paint9_linear_309_82)"/>
<path d="M9 12H10V11H9V12Z" fill="url(#paint10_linear_309_82)"/>
<path d="M9 14V12H8V14H9Z" fill="url(#paint11_linear_309_82)"/>
<path d="M8 15V14H6V15H8Z" fill="url(#paint12_linear_309_82)"/>
<path d="M5 14H6V13H5V14Z" fill="url(#paint13_linear_309_82)"/>
<path d="M4 13H5V12H4V13Z" fill="url(#paint14_linear_309_82)"/>
<path d="M3 12H4V11H3V12Z" fill="url(#paint15_linear_309_82)"/>
<path d="M2 11H3V9H2V11Z" fill="url(#paint16_linear_309_82)"/>
<path d="M3 8V9H4V8H3Z" fill="url(#paint17_linear_309_82)"/>
<path d="M4 7V8H5V7H4Z" fill="url(#paint18_linear_309_82)"/>
<path d="M6 6H5V7H6V6Z" fill="url(#paint19_linear_309_82)"/>
<path d="M7 5H6V6H7V5Z" fill="url(#paint20_linear_309_82)"/>
<path d="M8 4H7V5H8V4Z" fill="url(#paint21_linear_309_82)"/>
<path d="M14 9V8H13V7H12V8V9H14Z" fill="url(#paint22_linear_309_82)"/>
<path d="M12 6H11V7H12V6Z" fill="url(#paint23_linear_309_82)"/>
<path d="M11 5H10V6H11V5Z" fill="url(#paint24_linear_309_82)"/>
<path d="M10 4H9V5H10V4Z" fill="url(#paint25_linear_309_82)"/>
<path d="M1.65625 1.16016C1.625 1.14258 1.58952 1.13379 1.5498 1.13379C1.43783 1.13379 1.38184 1.20443 1.38184 1.3457V1.5H1.61621V1.63672H1.38184V2.5H1.22266V1.63672H1.05176V1.5H1.22266V1.33789C1.22266 1.23307 1.25293 1.15039 1.31348 1.08984C1.37402 1.02865 1.44954 0.998047 1.54004 0.998047C1.58887 0.998047 1.6276 1.00391 1.65625 1.01562V1.16016ZM2.50488 2.5H2.34473V2.34375H2.34082C2.27116 2.46354 2.16862 2.52344 2.0332 2.52344C1.93359 2.52344 1.85547 2.49707 1.79883 2.44434C1.74284 2.3916 1.71484 2.32161 1.71484 2.23438C1.71484 2.04753 1.82487 1.9388 2.04492 1.9082L2.34473 1.86621C2.34473 1.69629 2.27604 1.61133 2.13867 1.61133C2.01823 1.61133 1.90951 1.65234 1.8125 1.73438V1.57031C1.91081 1.50781 2.02409 1.47656 2.15234 1.47656C2.38737 1.47656 2.50488 1.60091 2.50488 1.84961V2.5ZM2.34473 1.99414L2.10352 2.02734C2.0293 2.03776 1.97331 2.05632 1.93555 2.08301C1.89779 2.10905 1.87891 2.1556 1.87891 2.22266C1.87891 2.27148 1.89616 2.31152 1.93066 2.34277C1.96582 2.37337 2.01237 2.38867 2.07031 2.38867C2.14974 2.38867 2.21517 2.361 2.2666 2.30566C2.31868 2.24967 2.34473 2.17904 2.34473 2.09375V1.99414ZM2.9707 2.35547H2.9668V2.5H2.80664V1.01953H2.9668V1.67578H2.9707C3.04948 1.54297 3.16471 1.47656 3.31641 1.47656C3.44466 1.47656 3.54492 1.52148 3.61719 1.61133C3.6901 1.70052 3.72656 1.82031 3.72656 1.9707C3.72656 2.13802 3.68587 2.27214 3.60449 2.37305C3.52311 2.47331 3.41178 2.52344 3.27051 2.52344C3.13835 2.52344 3.03841 2.46745 2.9707 2.35547ZM2.9668 1.95215V2.0918C2.9668 2.17448 2.99349 2.24479 3.04688 2.30273C3.10091 2.36003 3.16927 2.38867 3.25195 2.38867C3.34896 2.38867 3.4248 2.35156 3.47949 2.27734C3.53483 2.20312 3.5625 2.09993 3.5625 1.96777C3.5625 1.85645 3.53678 1.76921 3.48535 1.70605C3.43392 1.6429 3.36426 1.61133 3.27637 1.61133C3.18327 1.61133 3.1084 1.64388 3.05176 1.70898C2.99512 1.77344 2.9668 1.85449 2.9668 1.95215ZM4.50391 1.66211C4.47591 1.64062 4.43555 1.62988 4.38281 1.62988C4.31445 1.62988 4.25716 1.66211 4.21094 1.72656C4.16536 1.79102 4.14258 1.87891 4.14258 1.99023V2.5H3.98242V1.5H4.14258V1.70605H4.14648C4.16927 1.63574 4.2041 1.58105 4.25098 1.54199C4.29785 1.50228 4.35026 1.48242 4.4082 1.48242C4.44987 1.48242 4.48177 1.48698 4.50391 1.49609V1.66211ZM4.75977 1.24609C4.73112 1.24609 4.70671 1.23633 4.68652 1.2168C4.66634 1.19727 4.65625 1.17253 4.65625 1.14258C4.65625 1.11263 4.66634 1.08789 4.68652 1.06836C4.70671 1.04818 4.73112 1.03809 4.75977 1.03809C4.78906 1.03809 4.8138 1.04818 4.83398 1.06836C4.85482 1.08789 4.86523 1.11263 4.86523 1.14258C4.86523 1.17122 4.85482 1.19564 4.83398 1.21582C4.8138 1.236 4.78906 1.24609 4.75977 1.24609ZM4.83789 2.5H4.67773V1.5H4.83789V2.5ZM5.84375 2.4541C5.76693 2.50033 5.67578 2.52344 5.57031 2.52344C5.42773 2.52344 5.3125 2.47721 5.22461 2.38477C5.13737 2.29167 5.09375 2.17122 5.09375 2.02344C5.09375 1.85872 5.14095 1.72656 5.23535 1.62695C5.32975 1.52669 5.45573 1.47656 5.61328 1.47656C5.70117 1.47656 5.77865 1.49284 5.8457 1.52539V1.68945C5.77148 1.63737 5.69206 1.61133 5.60742 1.61133C5.50521 1.61133 5.42122 1.64811 5.35547 1.72168C5.29036 1.7946 5.25781 1.89062 5.25781 2.00977C5.25781 2.12695 5.28841 2.2194 5.34961 2.28711C5.41146 2.35482 5.49414 2.38867 5.59766 2.38867C5.6849 2.38867 5.76693 2.3597 5.84375 2.30176V2.4541Z" fill="white"/>
<path d="M1.09668 3.75V2.86172H1.17168V3.75H1.09668ZM1.40078 3.46348C1.40117 3.5002 1.40605 3.5332 1.41543 3.5625C1.4248 3.5918 1.43828 3.6166 1.45586 3.63691C1.47344 3.65723 1.49473 3.67285 1.51973 3.68379C1.54512 3.69434 1.57363 3.69961 1.60527 3.69961C1.67285 3.69961 1.73672 3.67598 1.79688 3.62871V3.70254C1.73945 3.74355 1.66992 3.76406 1.58828 3.76406C1.54805 3.76406 1.51152 3.75703 1.47871 3.74297C1.4459 3.72891 1.41797 3.70859 1.39492 3.68203C1.37188 3.65508 1.3541 3.62207 1.3416 3.58301C1.3291 3.54395 1.32285 3.49941 1.32285 3.44941C1.32285 3.40449 1.32969 3.36289 1.34336 3.32461C1.35703 3.28633 1.37598 3.25332 1.4002 3.22559C1.42441 3.19746 1.45313 3.17559 1.48633 3.15996C1.51953 3.14395 1.55586 3.13594 1.59531 3.13594C1.63398 3.13594 1.66816 3.14277 1.69785 3.15645C1.72754 3.16973 1.75234 3.18887 1.77227 3.21387C1.79258 3.23887 1.80801 3.26934 1.81855 3.30527C1.8291 3.34121 1.83438 3.38145 1.83438 3.42598V3.46348H1.40078ZM1.75703 3.39785C1.75586 3.33535 1.74102 3.28691 1.7125 3.25254C1.68398 3.21816 1.64434 3.20098 1.59355 3.20098C1.56816 3.20098 1.54453 3.20547 1.52266 3.21445C1.50117 3.22344 1.48223 3.23652 1.46582 3.25371C1.44941 3.27051 1.43574 3.29121 1.4248 3.31582C1.41426 3.34004 1.40684 3.36738 1.40254 3.39785H1.75703ZM2.47715 3.70371C2.47715 3.81504 2.45176 3.89746 2.40098 3.95098C2.35059 4.00488 2.27266 4.03184 2.16719 4.03184C2.10156 4.03184 2.03945 4.01719 1.98086 3.98789V3.91172C2.04609 3.94805 2.1082 3.96621 2.16719 3.96621C2.32383 3.96621 2.40215 3.8834 2.40215 3.71777V3.6457H2.3998C2.35371 3.72461 2.2834 3.76406 2.18887 3.76406C2.15176 3.76406 2.11777 3.75723 2.08691 3.74355C2.05645 3.72988 2.03027 3.71016 2.0084 3.68437C1.98652 3.65859 1.96953 3.62734 1.95742 3.59062C1.94531 3.55352 1.93926 3.51172 1.93926 3.46523C1.93926 3.41602 1.9457 3.37129 1.95859 3.33105C1.97148 3.29043 1.98984 3.25566 2.01367 3.22676C2.0375 3.19785 2.06621 3.17559 2.0998 3.15996C2.13379 3.14395 2.17188 3.13594 2.21406 3.13594C2.29883 3.13594 2.36074 3.17031 2.3998 3.23906H2.40215V3.15H2.47715V3.70371ZM2.40215 3.38555C2.40215 3.36055 2.39766 3.33691 2.38867 3.31465C2.37969 3.29238 2.36719 3.27285 2.35117 3.25605C2.33516 3.23926 2.31602 3.22598 2.29375 3.21621C2.27188 3.20605 2.24766 3.20098 2.22109 3.20098C2.18984 3.20098 2.16152 3.20703 2.13613 3.21914C2.11113 3.23125 2.08965 3.24844 2.07168 3.2707C2.0541 3.29297 2.04043 3.32012 2.03066 3.35215C2.02129 3.38379 2.0166 3.41953 2.0166 3.45937C2.0166 3.49609 2.02109 3.5293 2.03008 3.55898C2.03906 3.58867 2.05176 3.61387 2.06816 3.63457C2.08457 3.65527 2.1043 3.67129 2.12734 3.68262C2.15078 3.69395 2.17676 3.69961 2.20527 3.69961C2.23496 3.69961 2.26191 3.69434 2.28613 3.68379C2.31035 3.67285 2.33105 3.65801 2.34824 3.63926C2.36543 3.62012 2.37871 3.59785 2.38809 3.57246C2.39746 3.54668 2.40215 3.51895 2.40215 3.48926V3.38555ZM3.01621 3.75V3.64336H3.01387C2.99434 3.68164 2.96758 3.71133 2.93359 3.73242C2.9 3.75352 2.86191 3.76406 2.81934 3.76406C2.79043 3.76406 2.76426 3.75996 2.74082 3.75176C2.71777 3.74355 2.69805 3.73203 2.68164 3.71719C2.66563 3.70195 2.65313 3.68379 2.64414 3.6627C2.63555 3.6416 2.63125 3.61836 2.63125 3.59297C2.63125 3.53867 2.64805 3.49551 2.68164 3.46348C2.71523 3.43105 2.76602 3.40996 2.83398 3.4002L3.01621 3.37383C3.01621 3.25859 2.97148 3.20098 2.88203 3.20098C2.81211 3.20098 2.74727 3.22656 2.6875 3.27773V3.1957C2.7 3.18672 2.71406 3.17871 2.72969 3.17168C2.7457 3.16426 2.7625 3.15801 2.78008 3.15293C2.79766 3.14746 2.81563 3.14336 2.83398 3.14062C2.85273 3.1375 2.8709 3.13594 2.88848 3.13594C2.95527 3.13594 3.00566 3.15469 3.03965 3.19219C3.07402 3.22969 3.09121 3.28555 3.09121 3.35977V3.75H3.01621ZM2.86152 3.45879C2.83457 3.4627 2.81152 3.46758 2.79238 3.47344C2.77324 3.4793 2.75742 3.4873 2.74492 3.49746C2.73242 3.50723 2.72324 3.51953 2.71738 3.53437C2.71152 3.54883 2.70859 3.5668 2.70859 3.58828C2.70859 3.6043 2.71133 3.61914 2.7168 3.63281C2.72266 3.64648 2.73086 3.6584 2.74141 3.66855C2.75234 3.67832 2.76543 3.68594 2.78066 3.69141C2.79629 3.69687 2.81387 3.69961 2.8334 3.69961C2.85996 3.69961 2.88438 3.69453 2.90664 3.68437C2.92891 3.67422 2.94805 3.66016 2.96406 3.64219C2.98047 3.62422 2.99316 3.60273 3.00215 3.57773C3.01152 3.55273 3.01621 3.52559 3.01621 3.49629V3.43711L2.86152 3.45879ZM3.6707 3.72305C3.62617 3.75 3.57227 3.76387 3.50898 3.76465C3.46602 3.76504 3.42734 3.75762 3.39297 3.74238C3.35859 3.72715 3.3293 3.70605 3.30508 3.6791C3.28086 3.65176 3.2623 3.61973 3.24941 3.58301C3.23652 3.5459 3.23008 3.50566 3.23008 3.4623C3.23008 3.41738 3.23691 3.3752 3.25059 3.33574C3.26426 3.2959 3.28418 3.26133 3.31035 3.23203C3.33652 3.20234 3.36855 3.17891 3.40645 3.16172C3.44434 3.14453 3.4877 3.13594 3.53652 3.13594C3.58613 3.13594 3.63145 3.14551 3.67246 3.16465V3.24434C3.62871 3.21543 3.58145 3.20098 3.53066 3.20098C3.49512 3.20098 3.46348 3.20781 3.43574 3.22148C3.40801 3.23477 3.38457 3.25312 3.36543 3.27656C3.34668 3.29961 3.33223 3.32676 3.32207 3.35801C3.3123 3.38887 3.30742 3.42168 3.30742 3.45645C3.30742 3.48848 3.31152 3.51914 3.31973 3.54844C3.32832 3.57773 3.34121 3.60371 3.3584 3.62637C3.37598 3.64863 3.39805 3.66641 3.42461 3.67969C3.45117 3.69297 3.48242 3.69961 3.51836 3.69961C3.57461 3.69961 3.62539 3.68281 3.6707 3.64922V3.72305ZM3.98945 3.85898C3.96602 3.91758 3.93906 3.96094 3.90859 3.98906C3.87813 4.01758 3.84121 4.03184 3.79785 4.03184C3.77637 4.03184 3.7582 4.0293 3.74336 4.02422V3.95391C3.75195 3.95703 3.76055 3.95938 3.76914 3.96094C3.77813 3.9625 3.78711 3.96328 3.79609 3.96328C3.8207 3.96328 3.84199 3.95547 3.85996 3.93984C3.87832 3.92461 3.89414 3.90137 3.90742 3.87012L3.95957 3.74707L3.72871 3.15H3.81191L3.98359 3.6252C3.98594 3.63145 3.98809 3.63867 3.99004 3.64687C3.99238 3.65469 3.99453 3.6625 3.99648 3.67031H3.99941C4.00137 3.66367 4.00313 3.65703 4.00469 3.65039C4.00664 3.64336 4.00918 3.63574 4.0123 3.62754L4.19453 3.15H4.27363L3.98945 3.85898Z" fill="white" fill-opacity="0.8"/>
<defs>
<linearGradient id="paint0_linear_309_82" x1="8" y1="8.5" x2="10.5" y2="14" gradientUnits="userSpaceOnUse">
<stop stop-color="#F9EFDF"/>
<stop offset="1" stop-color="#A6A194"/>
</linearGradient>
<linearGradient id="paint1_linear_309_82" x1="7.5" y1="9" x2="9" y2="11.5" gradientUnits="userSpaceOnUse">
<stop stop-opacity="0.2"/>
<stop offset="1" stop-opacity="0.4"/>
</linearGradient>
<linearGradient id="paint2_linear_309_82" x1="7.5" y1="9" x2="9" y2="11.5" gradientUnits="userSpaceOnUse">
<stop stop-opacity="0.2"/>
<stop offset="1" stop-opacity="0.4"/>
</linearGradient>
<linearGradient id="paint3_linear_309_82" x1="7.5" y1="9" x2="9" y2="11.5" gradientUnits="userSpaceOnUse">
<stop stop-opacity="0.2"/>
<stop offset="1" stop-opacity="0.4"/>
</linearGradient>
<linearGradient id="paint4_linear_309_82" x1="7.5" y1="9" x2="9" y2="11.5" gradientUnits="userSpaceOnUse">
<stop stop-opacity="0.2"/>
<stop offset="1" stop-opacity="0.4"/>
</linearGradient>
<linearGradient id="paint5_linear_309_82" x1="7.5" y1="9" x2="9" y2="11.5" gradientUnits="userSpaceOnUse">
<stop stop-opacity="0.2"/>
<stop offset="1" stop-opacity="0.4"/>
</linearGradient>
<linearGradient id="paint6_linear_309_82" x1="7.5" y1="9" x2="9" y2="11.5" gradientUnits="userSpaceOnUse">
<stop stop-opacity="0.2"/>
<stop offset="1" stop-opacity="0.4"/>
</linearGradient>
<linearGradient id="paint7_linear_309_82" x1="7.5" y1="9" x2="9" y2="11.5" gradientUnits="userSpaceOnUse">
<stop stop-opacity="0.2"/>
<stop offset="1" stop-opacity="0.4"/>
</linearGradient>
<linearGradient id="paint8_linear_309_82" x1="7.5" y1="9" x2="9" y2="11.5" gradientUnits="userSpaceOnUse">
<stop stop-opacity="0.2"/>
<stop offset="1" stop-opacity="0.4"/>
</linearGradient>
<linearGradient id="paint9_linear_309_82" x1="7.5" y1="9" x2="9" y2="11.5" gradientUnits="userSpaceOnUse">
<stop stop-opacity="0.2"/>
<stop offset="1" stop-opacity="0.4"/>
</linearGradient>
<linearGradient id="paint10_linear_309_82" x1="7.5" y1="9" x2="9" y2="11.5" gradientUnits="userSpaceOnUse">
<stop stop-opacity="0.2"/>
<stop offset="1" stop-opacity="0.4"/>
</linearGradient>
<linearGradient id="paint11_linear_309_82" x1="7.5" y1="9" x2="9" y2="11.5" gradientUnits="userSpaceOnUse">
<stop stop-opacity="0.2"/>
<stop offset="1" stop-opacity="0.4"/>
</linearGradient>
<linearGradient id="paint12_linear_309_82" x1="7.5" y1="9" x2="9" y2="11.5" gradientUnits="userSpaceOnUse">
<stop stop-opacity="0.2"/>
<stop offset="1" stop-opacity="0.4"/>
</linearGradient>
<linearGradient id="paint13_linear_309_82" x1="7.5" y1="9" x2="9" y2="11.5" gradientUnits="userSpaceOnUse">
<stop stop-opacity="0.2"/>
<stop offset="1" stop-opacity="0.4"/>
</linearGradient>
<linearGradient id="paint14_linear_309_82" x1="7.5" y1="9" x2="9" y2="11.5" gradientUnits="userSpaceOnUse">
<stop stop-opacity="0.2"/>
<stop offset="1" stop-opacity="0.4"/>
</linearGradient>
<linearGradient id="paint15_linear_309_82" x1="7.5" y1="9" x2="9" y2="11.5" gradientUnits="userSpaceOnUse">
<stop stop-opacity="0.2"/>
<stop offset="1" stop-opacity="0.4"/>
</linearGradient>
<linearGradient id="paint16_linear_309_82" x1="7.5" y1="9" x2="9" y2="11.5" gradientUnits="userSpaceOnUse">
<stop stop-opacity="0.2"/>
<stop offset="1" stop-opacity="0.4"/>
</linearGradient>
<linearGradient id="paint17_linear_309_82" x1="7.5" y1="9" x2="9" y2="11.5" gradientUnits="userSpaceOnUse">
<stop stop-opacity="0.2"/>
<stop offset="1" stop-opacity="0.4"/>
</linearGradient>
<linearGradient id="paint18_linear_309_82" x1="7.5" y1="9" x2="9" y2="11.5" gradientUnits="userSpaceOnUse">
<stop stop-opacity="0.2"/>
<stop offset="1" stop-opacity="0.4"/>
</linearGradient>
<linearGradient id="paint19_linear_309_82" x1="7.5" y1="9" x2="9" y2="11.5" gradientUnits="userSpaceOnUse">
<stop stop-opacity="0.2"/>
<stop offset="1" stop-opacity="0.4"/>
</linearGradient>
<linearGradient id="paint20_linear_309_82" x1="7.5" y1="9" x2="9" y2="11.5" gradientUnits="userSpaceOnUse">
<stop stop-opacity="0.2"/>
<stop offset="1" stop-opacity="0.4"/>
</linearGradient>
<linearGradient id="paint21_linear_309_82" x1="7.5" y1="9" x2="9" y2="11.5" gradientUnits="userSpaceOnUse">
<stop stop-opacity="0.2"/>
<stop offset="1" stop-opacity="0.4"/>
</linearGradient>
<linearGradient id="paint22_linear_309_82" x1="7.5" y1="9" x2="9" y2="11.5" gradientUnits="userSpaceOnUse">
<stop stop-opacity="0.2"/>
<stop offset="1" stop-opacity="0.4"/>
</linearGradient>
<linearGradient id="paint23_linear_309_82" x1="7.5" y1="9" x2="9" y2="11.5" gradientUnits="userSpaceOnUse">
<stop stop-opacity="0.2"/>
<stop offset="1" stop-opacity="0.4"/>
</linearGradient>
<linearGradient id="paint24_linear_309_82" x1="7.5" y1="9" x2="9" y2="11.5" gradientUnits="userSpaceOnUse">
<stop stop-opacity="0.2"/>
<stop offset="1" stop-opacity="0.4"/>
</linearGradient>
<linearGradient id="paint25_linear_309_82" x1="7.5" y1="9" x2="9" y2="11.5" gradientUnits="userSpaceOnUse">
<stop stop-opacity="0.2"/>
<stop offset="1" stop-opacity="0.4"/>
</linearGradient>
</defs>
</svg>
